<?xml version="1.0" encoding="UTF-8" standalone="no"?>
<!-- Created with Inkscape (http://www.inkscape.org/) -->

<svg
   width="10.300792mm"
   height="10.300792mm"
   viewBox="0 0 10.300792 10.300792"
   version="1.1"
   id="svg1"
   xml:space="preserve"
   xmlns="http://www.w3.org/2000/svg"
   xmlns:svg="http://www.w3.org/2000/svg"><defs
     id="defs1" /><g
     id="layer1"
     transform="translate(-84.356277,-142.79102)"><rect
       style="fill:#cccccc;stroke-width:0.264583"
       id="rect1"
       width="10.300793"
       height="10.300793"
       x="84.356277"
       y="142.79102" /><g
       style="fill:#999999"
       id="g1"
       transform="matrix(0.26458333,0,0,0.26458333,86.188576,144.7666)"><path
         d="m 20.8894,5.1786 v 11.3 c 0,1.98 -1.61,3.59 -3.59,3.59 -1.97,0 -3.59,-1.61 -3.59,-3.59 0,-1.97 1.62,-3.58 3.59,-3.58 0.84,0 1.59,0.29 2.2,0.77 v -5.95 l -9.21,2.62 v 8.07 c 0,1.98 -1.62003,3.59 -3.59003,3.59 -1.98,0 -3.58999,-1.61 -3.58999,-3.59 0,-1.97 1.60999,-3.58 3.58999,-3.58 0.83001,0 1.58001,0.29 2.19001,0.76 v -8.84 c 0,-1.47 0.89,-2.61 2.30002,-2.99 l 5.78,-1.58 c 1.17,-0.32 2.16,-0.21 2.86,0.33 0.71,0.53 1.06,1.43 1.06,2.67 z"
         fill="#292d32"
         id="path1"
         style="fill:#999999" /></g></g></svg>
